/* XPM */
static char *_ecb5531658c4d1eb76ef4ba7598ad9cwQx8WSKe8CiO9SnI[] = {
/* columns rows colors chars-per-pixel */
"32 32 44 1 ",
"  c black",
". c #292000",
"X c #634C00",
"o c #7F6300",
"O c #9A7701",
"+ c #9B7802",
"@ c #B49600",
"# c #CB8700",
"$ c #CD8701",
"% c #CA8800",
"& c #CC8801",
"* c #D49700",
"= c #D39800",
"- c #DAAA00",
"; c #DEAB00",
": c #DFAD00",
"> c #E1AF00",
", c #E5BC00",
"< c #DAC301",
"1 c #E8C000",
"2 c #EAC401",
"3 c #EFCF00",
"4 c #F1CE00",
"5 c #EBDB01",
"6 c #EDDA01",
"7 c #F0D001",
"8 c #FBE600",
"9 c #FCE700",
"0 c #FBE900",
"q c #FCEA00",
"w c #FFEE00",
"e c #FFEF15",
"r c #FFF12C",
"t c #B59B44",
"y c #FFF244",
"u c #FFF45C",
"i c #FFF673",
"p c #EFD888",
"a c #DACFA2",
"s c #FFF9A3",
"d c #FFF9BB",
"f c #EDE8D3",
"g c #FCF8EC",
"h c white",
/* pixels */
"          .OOO+O++OOO.          ",
"          .OOOO++OOOO.          ",
"      X+OOthhhhhhhhhhtOO+X      ",
"      XOOOthhhhhhhhhhtOOOX      ",
"    oOahhhdwwwwwwwwwwdhhhaOo    ",
"    oOahhhdwwwwwwwwwwdhhhaOo    ",
"  OOfhuwwwww8$&&&&$8wwwwwuhfOO  ",
"  O+fhuwwwww9&#&&&&9wwwwwuhfOO  ",
"  OO6www1&&#&;;;;;;&&&#1www6OO  ",
"  OO6www1&%&&;;;;;;&&&$1www6OO  ",
"OOhhrwww3;;;>wwwwww>;;;3wwwrhhOO",
"OOhhrwww3;;;>wwwwww>;;;3wwwrhhOO",
"OOwwww:&*;,wq;;;;;;0w,;*&:wwwwOO",
"OOwwww>&*;,wq;;;;;;0w,;=&>wwwwOO",
"OOwwww1;;;,w0;;;;;-;;;;;;1wwwwOO",
"OOwwww2;;;,w0;;;;;;;;;;;;2wwwwOO",
"OOwwww1;;;,w0;;;;;;;;;;;;1wwwwOO",
"OOwwww1;;;,w0;;;;;:;;;-;;1wwwwOO",
"OOwwww1;;;,w0;-;;;;0w,;;;1wwwwOO",
"O+wwww1;;;,w0;;;;;;0w,;;;1wwww+O",
"OOwwwwshp;;;>wwwwww>;;;phswwwwOO",
"OOwwwwshp;-;>wwwwww>;;;phswwwwOO",
"  OO5www3;;;;;;;;;;;;;;4www5OO  ",
"  OO6www3;;;;;;;;;;-;;;7www6OO  ",
"  O+6wwwihhhg-;;;;;ghywwwww6+O  ",
"  OO6wwwihhhg;;;;;;ghywwwww6OO  ",
"    oO<wwwwwehhhhhhewwwww<Oo    ",
"    oO<wwwwwehhhhhhewwwww<Oo    ",
"      XOOO@wwwwwwwwww@OOOX      ",
"      XOOO@wwwwwwwwww@OOOX      ",
"          .OOOOO+OO+O.          ",
"          .OOOOOOOOOO.          "
};
