/* XPM */
static char *_c82810440df4c34dce8201fd3c0dbf7JZOws5hgXSmHQnp4[] = {
/* columns rows colors chars-per-pixel */
"32 32 9 1 ",
"  c None",
". c #2D241B",
"X c #4A3316",
"o c #614626",
"O c #694D2A",
"+ c #775A34",
"@ c #65656F",
"# c #876439",
"$ c #9F7949",
/* pixels */
"                                ",
"                                ",
"                                ",
"                                ",
"                                ",
"       .................        ",
"      .++XXXXXXXXXXXXX++.       ",
"      .+++++++++++++++++.       ",
"      ...................       ",
"      .$$$$$$$$$$$$$$$$$.       ",
"      .OO+++++++++++++OO.       ",
"      .O@+XXXXXXXXXXX+@O.       ",
"      .O+XX+XoooooX#XX+O.       ",
"      .O+X+++XoooX###X+O.       ",
"      .O+XX+++XoX###XX+O.       ",
"      .O+XoX+++X###XoX+O.       ",
"      .O+XooX+X###XooX+O.       ",
"      .O+XOooX###XoooX+O.       ",
"      .O+XooX###X+XooX+O.       ",
"      .O+XoX###X+++XoX+O.       ",
"      .O+XX###XoX+++XX+O.       ",
"      .O+X###XoooX+++X+O.       ",
"      .O+XX#XoooooX+XX+O.       ",
"      .O++XXXXXXXXXXX++O.       ",
"      .O@+++++++++++++@O.       ",
"      .OOOOOOOOOOOOOOOOO.       ",
"      ...................       ",
"                                ",
"                                ",
"                                ",
"                                ",
"                                "
};
