/* XPM */
static char *_8bd57352f5e467b8c050d6b21fe539fXwSzRFiE99bzxe22[] = {
/* columns rows colors chars-per-pixel */
"32 32 18 1 ",
"  c black",
". c #301000",
"X c #042805",
"o c #0F333B",
"O c #6B2702",
"+ c #0A4909",
"@ c #0F6F0B",
"# c #175B6C",
"$ c #933F03",
"% c #A14028",
"& c #CD5032",
"* c #FC5F27",
"= c #CD7D59",
"- c #3CA64F",
"; c #FD996C",
": c #0A54A8",
"> c #0F7DFF",
", c white",
/* pixels */
"::::::::::::::::::::::::::::::::",
":>>>>>>>>>>>>>>::>>>>>>>>>>>>>>:",
":>>>>>>>>>>>>>>::>>>>>>>>>>>>>>:",
":>>>>>>>>>>>>>>::>>>>>>>>>>>>>>:",
":>>>>>>>>>>>>>>::>>>>>>>>>>>>>>:",
":>>>>>>>>>>>>>>::>>>>>>>>>>>>>>:",
":>>>>>>>>>>>>>>::>OOO>>>>>>>>>>:",
":>>>>>>>>>>>>>OOOO$$$O>>>>>>>>>:",
":>>>>>>>>>>>OO$$$OO$$$O>>>>>>>>:",
":>>>>>>>>>>O$$OOOOOO$$$O>>>>>>>:",
":>>>>>>>>>O$OOOOOOOOO$$O>>>>>>>:",
":>>>>>>>>>.OOOOOOO...OO>>>>>>>>:",
":>>>>>>>>.OOOOO...==%>>>>>>>>>>:",
":>>>>>>>>.OOOO.=,,,=,,>>>>>>>>>:",
":>>>>>>>>.O..O.=,  ; ,>>>>>>>>>:",
":::::::::..%.O.;,  ; ,&:::::::::",
"::::::::::%=%..;,,,;,,;&::::::::",
":>>>>>>>>>%=%==;;;;;;;;&>>>>>>>:",
":>>>>>>>>>>%==;;;****&&>>>>>>>>:",
":>>>>>>>>>>>%%;;;;;;&>>>>>>>>>>:",
":>>>>>>>>>>>X+&&&&&&X>>>>>>>>>>:",
":>>>>>>>>>>X+++X@@@@+X>>>>>>>>>:",
":>>>>>>>>>>X+++X----+X>>>>>>>>>:",
":>>>>>>>>>>X+++X@@@@+X>>>>>>>>>:",
":>>>>>>>>>>X+++X----+X>>>>>>>>>:",
":>>>>>>>>>>&;;;;&@@@+&>>>>>>>>>:",
":>>>>>>>>>>&;;;;&+++o&>>>>>>>>>:",
":>>>>>>>>>>&;;;&####o>>>>>>>>>>:",
":>>>>>>>>>>>&&&ooo##o>>>>>>>>>>:",
":>>>>>>>>>>>.OO.:.OO.>>>>>>>>>>:",
":>>>>>>>>>>.OOO.:.OOO.>>>>>>>>>:",
":::::::::::.....:.....::::::::::"
};
